<?xml version="1.0" standalone="no"?>
<!DOCTYPE svg PUBLIC "-//W3C//DTD SVG 20010904//EN"
 "http://www.w3.org/TR/2001/REC-SVG-20010904/DTD/svg10.dtd">
<svg version="1.0" xmlns="http://www.w3.org/2000/svg"
 width="430.000000pt" height="430.000000pt" viewBox="0 0 430.000000 430.000000"
 preserveAspectRatio="xMidYMid meet">
<metadata>
Created by potrace 1.11, written by Peter Selinger 2001-2013
</metadata>
<g transform="translate(0.000000,430.000000) scale(0.100000,-0.100000)"
fill="#000000" stroke="none">
<path d="M2169 4036 c-12 -14 -26 -23 -31 -20 -4 3 -8 2 -8 -3 0 -4 -66 -8
-148 -8 -81 0 -162 -3 -179 -6 -19 -4 -33 -3 -33 3 0 5 -6 6 -12 1 -7 -4 -21
-8 -30 -9 -10 -1 -19 -2 -20 -4 -2 -1 -10 -3 -18 -5 -8 -2 -46 -15 -83 -29
-38 -15 -73 -24 -78 -21 -5 4 -9 1 -9 -6 0 -7 -3 -9 -6 -6 -4 3 -15 2 -26 -4
-11 -6 -29 -12 -40 -14 -12 -3 -26 -9 -30 -13 -17 -17 -19 -70 -4 -107 8 -19
11 -33 6 -30 -5 3 -7 -1 -4 -9 7 -17 -26 -77 -38 -70 -4 3 -8 0 -8 -6 0 -15
-26 -41 -34 -33 -3 4 -6 0 -6 -7 0 -7 -11 -23 -24 -35 -14 -13 -22 -26 -18
-31 4 -4 0 -5 -9 -1 -12 4 -16 1 -12 -13 3 -10 -1 -21 -8 -25 -8 -5 -10 -4 -5
3 4 7 3 12 -2 12 -5 0 -13 -15 -18 -32 -6 -18 -16 -33 -24 -33 -9 0 -15 -9
-14 -23 1 -16 -3 -22 -13 -18 -8 3 -11 1 -8 -4 3 -6 2 -10 -4 -10 -6 0 -8 -6
-5 -14 3 -8 0 -17 -5 -21 -6 -3 -9 -11 -6 -16 4 -5 1 -9 -5 -9 -6 0 -8 -4 -5
-10 3 -5 2 -10 -2 -10 -5 0 -9 -8 -10 -17 -1 -10 -5 -31 -8 -48 -4 -16 -7 -50
-8 -75 -1 -42 -16 -61 -43 -59 -4 0 -10 -4 -14 -11 -4 -6 -13 -12 -21 -14 -19
-3 -60 -26 -77 -43 -8 -7 -17 -11 -21 -8 -5 2 -23 -13 -41 -35 -18 -22 -38
-37 -43 -33 -6 3 -7 1 -3 -6 4 -6 0 -14 -8 -17 -9 -3 -16 -12 -16 -20 0 -8 -7
-14 -16 -14 -8 0 -12 -5 -9 -10 3 -6 -1 -13 -9 -16 -9 -3 -14 -10 -11 -14 3
-4 -2 -11 -11 -14 -9 -3 -12 -11 -8 -18 5 -8 2 -9 -10 -5 -9 4 -15 3 -11 -2 3
-5 -2 -17 -11 -25 -8 -9 -12 -16 -8 -16 4 0 0 -6 -9 -12 -9 -7 -17 -20 -19
-28 -2 -8 -9 -20 -17 -26 -7 -6 -13 -23 -13 -38 0 -17 -5 -25 -12 -23 -7 3
-13 -4 -13 -16 -1 -11 -8 -24 -15 -28 -7 -5 -9 -9 -4 -9 6 0 1 -7 -10 -15 -10
-8 -16 -15 -12 -15 4 0 -1 -16 -12 -36 -12 -20 -15 -32 -8 -28 7 4 0 -5 -15
-21 -15 -16 -26 -34 -23 -41 3 -7 -2 -15 -11 -18 -9 -4 -13 -13 -9 -22 4 -10
2 -13 -6 -8 -7 5 -9 2 -5 -9 3 -9 0 -18 -9 -21 -8 -3 -14 -13 -14 -21 0 -9 -4
-13 -10 -10 -6 3 -7 -1 -4 -9 3 -9 1 -16 -6 -16 -6 0 -8 -4 -5 -10 3 -5 1 -10
-4 -10 -14 0 -72 -115 -63 -125 4 -5 2 -5 -4 -2 -9 5 -51 -74 -60 -113 -8 -31
-18 -50 -27 -50 -6 0 -8 -3 -4 -6 3 -4 0 -19 -9 -35 -8 -16 -12 -29 -8 -29 4
0 1 -6 -5 -13 -6 -8 -8 -17 -4 -20 3 -4 2 -7 -3 -7 -5 0 -10 -11 -10 -25 -1
-14 -8 -32 -15 -41 -7 -9 -13 -34 -14 -56 -1 -22 -6 -42 -12 -46 -6 -4 -13
-16 -15 -27 -1 -11 -6 -22 -10 -25 -6 -5 -18 -50 -20 -77 -1 -7 -5 -13 -9 -13
-4 0 -6 -8 -4 -17 1 -10 -1 -25 -6 -34 -8 -16 -18 -55 -24 -99 -13 -96 -18
-140 -18 -177 -1 -27 -5 -40 -11 -36 -6 4 -5 0 2 -9 9 -11 10 -18 2 -23 -6 -3
-7 -11 -4 -17 4 -6 7 -33 7 -62 -1 -28 2 -55 5 -61 6 -9 11 -32 14 -67 1 -9 7
-14 12 -11 5 4 7 -1 3 -10 -3 -9 0 -23 8 -31 8 -8 15 -22 15 -30 0 -9 5 -16
10 -16 6 0 10 -7 10 -15 0 -8 3 -15 8 -15 4 0 13 -12 19 -28 7 -15 32 -48 56
-75 24 -26 41 -47 38 -47 -3 -1 5 -10 18 -20 13 -11 20 -20 17 -20 -4 0 -2 -6
4 -13 47 -55 60 -74 60 -85 0 -7 5 -10 10 -7 6 4 17 -9 25 -27 8 -18 14 -30
15 -26 0 4 9 0 19 -9 11 -9 18 -20 15 -24 -4 -7 21 -19 39 -19 4 0 22 -13 39
-29 17 -16 37 -27 43 -25 7 3 18 -2 25 -11 7 -8 21 -15 31 -15 11 0 19 -4 19
-10 0 -5 11 -10 25 -10 14 0 25 -4 25 -8 0 -4 10 -8 22 -9 35 -3 98 -25 98
-35 0 -5 5 -6 10 -3 6 4 17 1 25 -5 12 -10 15 -10 15 1 0 9 3 10 8 4 7 -10 14
-12 51 -18 11 -2 27 -9 37 -17 13 -11 16 -12 10 -1 -6 9 -1 8 16 -3 14 -9 28
-13 31 -9 4 3 7 1 7 -6 0 -7 4 -10 9 -7 5 3 21 -4 37 -16 15 -13 25 -17 20
-10 -4 6 -2 12 3 12 6 0 11 -8 11 -17 0 -13 2 -15 8 -5 7 10 15 7 37 -10 16
-12 25 -16 20 -8 -5 9 -1 8 13 -3 11 -11 25 -16 31 -13 5 3 11 2 13 -2 1 -4
50 -23 108 -41 58 -18 115 -37 128 -43 24 -12 231 -16 400 -8 56 3 102 3 102
0 0 -3 11 -5 25 -5 14 0 25 3 25 6 0 3 17 5 38 4 20 -1 43 3 51 9 11 8 15 8
19 -2 3 -10 7 -10 17 -2 10 8 20 8 36 0 12 -7 19 -8 16 -3 -3 4 22 9 56 10 33
1 81 7 106 13 25 6 73 13 106 15 33 2 60 5 60 6 0 2 36 8 77 11 21 2 38 7 38
11 0 4 10 3 21 -4 15 -8 19 -8 15 0 -5 7 3 11 21 12 15 0 37 3 48 5 11 3 29 6
40 7 11 2 25 5 30 8 6 3 17 5 25 4 8 0 18 4 22 10 5 7 8 6 8 -1 0 -12 48 0 79
20 10 6 12 5 7 -2 -5 -8 -2 -10 8 -6 9 3 16 11 16 18 0 6 5 4 10 -4 7 -12 10
-12 10 -1 0 7 6 11 15 7 10 -3 15 1 16 12 0 10 3 12 6 5 3 -10 8 -9 20 2 8 8
19 13 24 10 5 -4 9 -1 9 5 0 7 7 10 15 6 8 -3 15 -1 15 5 0 6 5 7 10 4 6 -3
10 -1 10 5 0 11 64 43 88 43 6 0 12 4 12 9 0 5 5 6 10 3 6 -3 10 2 10 12 0 14
2 15 9 4 7 -11 10 -9 16 8 3 12 10 19 15 16 12 -8 41 6 34 16 -3 5 4 9 15 9
12 0 21 5 21 11 0 5 5 7 10 4 6 -3 10 -1 10 4 0 6 7 11 16 11 8 0 12 5 9 10
-6 9 8 14 28 11 4 0 7 7 7 17 0 13 2 14 9 4 7 -11 9 -10 15 3 3 9 10 13 16 10
6 -4 7 1 3 11 -4 12 -3 15 5 10 7 -4 12 -2 12 5 0 8 4 8 15 -1 13 -11 14 -10
9 5 -5 12 -4 16 3 12 6 -4 14 0 17 9 3 8 10 13 15 9 6 -3 15 4 21 15 6 11 15
18 20 15 6 -3 15 4 21 17 6 13 20 30 31 37 15 9 18 10 13 0 -6 -8 -4 -10 4 -5
7 5 10 15 6 23 -5 14 -3 14 12 2 10 -7 15 -10 11 -5 -9 11 10 48 21 41 5 -3
12 2 15 11 4 10 14 14 24 12 11 -3 19 0 19 8 0 7 -5 10 -11 7 -6 -4 -5 1 3 10
7 9 16 15 20 13 3 -2 11 2 18 9 10 11 10 15 0 18 -7 3 -2 6 10 6 12 1 25 5 28
11 4 6 -1 7 -10 3 -15 -5 -15 -3 -3 18 7 13 18 27 23 31 5 4 10 11 10 15 1 17
53 64 60 53 9 -15 35 7 29 25 -3 7 0 16 7 21 7 4 10 3 5 -4 -3 -6 -2 -14 4
-17 6 -4 10 -3 9 2 -1 4 -1 17 0 28 1 17 3 18 11 5 9 -13 10 -13 10 1 0 8 7
24 16 35 8 10 13 14 10 8 -3 -6 4 -20 17 -30 22 -19 22 -19 5 2 -16 18 -16 22
-2 42 8 12 12 27 8 34 -4 6 -3 8 4 4 6 -3 19 7 28 24 10 16 21 30 24 30 4 0 7
7 8 15 1 8 3 22 4 30 1 8 6 15 11 15 5 0 7 11 5 25 -3 14 -1 22 4 19 6 -4 7 7
5 25 -3 17 -1 31 4 31 5 0 9 5 9 11 0 5 -5 7 -11 3 -8 -5 -8 -1 0 14 6 11 11
33 11 49 0 22 2 25 10 13 6 -9 10 -10 10 -3 0 6 -5 15 -10 18 -8 5 -7 11 1 21
6 8 7 14 3 14 -5 0 -10 13 -10 30 -1 19 2 28 10 23 6 -3 6 0 -1 8 -7 7 -13 19
-13 27 0 12 3 12 18 1 14 -11 13 -9 -2 9 -11 12 -20 39 -21 60 -1 21 -5 45
-10 53 -7 12 -6 11 11 -1 18 -14 18 -14 3 5 -15 18 -24 44 -35 99 -2 11 -9 23
-15 27 -8 5 -7 8 2 12 11 5 10 8 -3 17 -9 6 -15 19 -13 30 2 11 -1 20 -6 20
-6 0 -7 5 -4 10 3 6 2 10 -4 10 -6 0 -7 7 -4 17 4 10 2 14 -4 10 -6 -4 -11 3
-10 18 0 13 -8 31 -17 40 -21 21 -21 31 1 14 15 -13 15 -12 3 8 -8 12 -17 20
-20 18 -3 -2 -7 5 -7 16 -1 12 2 17 10 12 7 -3 5 2 -4 13 -25 30 -34 48 -20
39 7 -4 2 10 -12 31 -13 22 -22 45 -20 52 3 6 1 12 -4 12 -6 0 -10 6 -10 13
-1 16 -11 80 -14 87 -1 3 -1 8 0 13 0 4 -6 7 -14 7 -8 0 -15 5 -15 11 0 5 4 8
8 5 4 -2 8 4 8 14 0 10 -5 18 -10 17 -6 -1 -10 7 -11 18 0 11 -4 26 -9 34 -7
10 -6 12 3 6 8 -4 6 4 -4 18 -9 15 -14 30 -11 35 3 4 -4 15 -15 22 -10 8 -19
20 -19 26 0 7 -7 14 -15 17 -14 6 -61 87 -49 87 3 0 -2 7 -11 16 -9 9 -14 23
-11 30 3 8 1 14 -4 14 -6 0 -10 9 -10 21 0 11 -4 17 -10 14 -5 -3 -10 3 -10
14 0 12 -3 21 -7 21 -5 0 -16 14 -25 30 -9 17 -25 30 -35 30 -15 0 -16 2 -3
10 13 9 12 13 -7 29 -12 10 -19 22 -15 26 4 3 -1 11 -11 16 -9 6 -17 19 -17
30 0 11 -4 17 -10 14 -5 -3 -10 1 -10 9 0 9 -4 16 -9 16 -5 0 -12 11 -15 25
-4 14 -11 25 -17 25 -6 0 -7 5 -4 10 3 6 -1 10 -10 10 -11 0 -15 5 -12 14 4
10 -2 16 -16 18 -16 2 -22 9 -21 26 1 14 -4 22 -14 22 -8 0 -12 3 -9 6 7 7
-30 44 -45 44 -4 0 -8 6 -8 14 0 7 -8 20 -17 27 -17 13 -17 13 -3 -6 14 -19
14 -19 -2 -6 -10 7 -18 20 -18 27 0 8 -4 14 -9 14 -5 0 -25 16 -44 35 -19 19
-37 31 -41 28 -3 -3 -6 1 -6 11 0 9 -4 15 -9 11 -6 -3 -15 4 -21 15 -6 11 -18
20 -26 20 -9 0 -12 5 -8 12 4 6 3 8 -3 5 -13 -8 -55 22 -47 34 3 5 2 9 -3 8
-24 -4 -43 3 -43 16 0 8 -6 12 -13 9 -8 -3 -27 8 -44 23 -16 15 -36 28 -44 28
-8 0 -13 6 -11 13 1 8 -2 11 -7 8 -5 -4 -14 2 -20 11 -7 13 -10 14 -11 4 0
-10 -6 -7 -19 7 -10 12 -21 19 -25 15 -3 -3 -6 -1 -6 6 0 8 -7 11 -15 7 -8 -3
-15 -1 -15 4 0 6 -20 20 -45 32 -25 12 -45 26 -45 31 0 4 -4 6 -9 2 -5 -3 -20
5 -33 17 -31 31 -126 81 -138 73 -5 -3 -10 -1 -10 4 0 6 -13 11 -30 11 -16 0
-30 4 -30 8 0 4 -10 8 -21 9 -12 1 -31 10 -42 20 -11 10 -17 12 -13 6 13 -23
-4 -13 -40 22 -19 19 -32 40 -29 45 3 6 1 10 -6 10 -7 0 -10 3 -6 6 7 7 -25
40 -78 79 -22 16 -53 43 -69 59 -15 17 -25 24 -21 16 4 -9 1 -9 -8 3 -8 9 -19
17 -26 17 -6 0 -11 5 -11 12 0 6 -3 8 -7 5 -3 -4 -12 -2 -19 4 -10 8 -19 4
-35 -15z m1826 -3075 c3 -5 2 -12 -3 -15 -5 -3 -9 1 -9 9 0 17 3 19 12 6z"/>
<path d="M4230 1236 c0 -2 8 -10 18 -17 15 -13 16 -12 3 4 -13 16 -21 21 -21
13z"/>
<path d="M4196 1202 c-3 -5 1 -9 9 -9 8 0 12 4 9 9 -3 4 -7 8 -9 8 -2 0 -6 -4
-9 -8z"/>
<path d="M4200 1140 c-9 -6 -10 -10 -3 -10 6 0 15 5 18 10 8 12 4 12 -15 0z"/>
<path d="M4159 1128 c-5 -18 -6 -38 -1 -34 7 8 12 36 6 36 -2 0 -4 -1 -5 -2z"/>
<path d="M4186 1102 c-2 -4 4 -8 14 -8 10 0 16 4 14 8 -3 4 -9 8 -14 8 -5 0
-11 -4 -14 -8z"/>
<path d="M4120 1040 c-9 -6 -10 -10 -3 -10 6 0 15 5 18 10 8 12 4 12 -15 0z"/>
<path d="M4151 947 c-13 -21 -12 -21 5 -5 10 10 16 20 13 22 -3 3 -11 -5 -18
-17z"/>
<path d="M3935 900 c-3 -5 -1 -10 4 -10 6 0 11 5 11 10 0 6 -2 10 -4 10 -3 0
-8 -4 -11 -10z"/>
<path d="M4086 882 c-3 -5 1 -9 9 -9 8 0 12 4 9 9 -3 4 -7 8 -9 8 -2 0 -6 -4
-9 -8z"/>
<path d="M3913 845 c0 -8 4 -12 9 -9 5 3 6 10 3 15 -9 13 -12 11 -12 -6z"/>
<path d="M4190 779 c0 -5 5 -7 10 -4 6 3 10 8 10 11 0 2 -4 4 -10 4 -5 0 -10
-5 -10 -11z"/>
<path d="M3870 759 c0 -5 5 -7 10 -4 6 3 10 8 10 11 0 2 -4 4 -10 4 -5 0 -10
-5 -10 -11z"/>
<path d="M3830 706 c0 -2 7 -7 16 -10 8 -3 12 -2 9 4 -6 10 -25 14 -25 6z"/>
<path d="M3899 613 c-13 -16 -12 -17 4 -4 16 13 21 21 13 21 -2 0 -10 -8 -17
-17z"/>
</g>
</svg>
